PathFileType	4	(X/Y/Z)	4_coords_data.trc
DataRate	CameraRate	NumFrames	NumMarkers	Units	OrigDataRate	OrigDataStartFrame	OrigNumFrames
30.0	30.0	9	21	m	30.0	31	51
Frame#	Time	THUMB_TIP	THUMB_IP	THUMB_MCP	THUMB_CMC	INDEX_TIP	INDEX_DIP	INDEX_PIP	INDEX_MCP	MIDDLE_TIP	MIDDLE_DIP	MIDDLE_PIP	MIDDLE_MCP	RING_TIP	RING_DIP	RING_PIP	RING_MCP	PINKY_TIP	PINKY_DIP	PINKY_PIP	PINKY_MCP	WRIST
X1	Y1	Z1	X2	Y2	Z2	X3	Y3	Z3	X4	Y4	Z4	X5	Y5	Z5	X6	Y6	Z6	X7	Y7	Z7	X8	Y8	Z8	X9	Y9	Z9	X10	Y10	Z10	X11	Y11	Z11	X12	Y12	Z12	X13	Y13	Z13	X14	Y14	Z14	X15	Y15	Z15	X16	Y16	Z16	X17	Y17	Z17	X18	Y18	Z18	X19	Y19	Z19	X20	Y20	Z20	X21	Y21	Z21
29	0.9999999999999956	0.5377893418386621	-0.008710203755211587	-0.14137623111968023	0.519365644147094	-0.014111022492960701	-0.12875091843714914	0.49172143204140006	-0.023499818471925393	-0.11795888215474254	0.477742686822909	-0.02713037584495459	-0.07575338801857989	0.5663488034177464	-0.0008427136178481565	-0.1424039940605829	0.5512303023304546	0.008534668513015431	-0.13901347356288368	0.5293663604364262	0.01898507956892137	-0.13232267490972205	0.49026604334196566	0.02431471273891328	-0.11631029509328095	0.5784443371432779	-0.00314526821068295	-0.1321870706997259	0.5651325964595507	0.0074460227231974985	-0.12597240125372144	0.5428158874589524	0.023007944436817418	-0.11552249015544952	0.5029754782885695	0.03135946429296976	-0.09710668622977836	0.5775490798756745	-0.01076625244846463	-0.1121194512755525	0.569662648210153	0.003568519296902717	-0.10454855208237346	0.5550969105855035	0.02118550624276483	-0.0946661921719475	0.5180745297891375	0.02734399097594875	-0.07962833261814045	0.5699440584297465	-0.01814226465542923	-0.09532016524705894	0.5672788811028174	-0.0049650369412421735	-0.08472500127548754	0.5589121144266014	0.010108672141474484	-0.07274199126650455	0.5252375271621743	0.01465029594066114	-0.06064739425638682	0.4622830810018609	-0.023011742144276925	-0.051989820119430985
30	1.0333333333333288	0.537770199500052	-0.00877312146629372	-0.14130561118916302	0.5193273618127042	-0.014192958164775171	-0.12871644488634787	0.4916792340370033	-0.023613439743902842	-0.11796211751008501	0.47777424792068823	-0.02716980428406146	-0.07572595252837067	0.5661054755253735	-0.0007763662012122419	-0.14259218273105106	0.5509892103537073	0.008594781905751248	-0.13917456507876325	0.5291416810910682	0.0190601738914139	-0.13245363741179977	0.4900931827578998	0.024403542790695343	-0.11631984428275727	0.5780044892997834	-0.0035153153496836342	-0.13218298783528432	0.5647914294392751	0.007213027184419851	-0.12599285733637222	0.5426170165932809	0.022993963268522988	-0.11556850981507039	0.5028324676295924	0.03147789410217139	-0.09709256593212506	0.5770059624846463	-0.011173792637836133	-0.11205199981414132	0.5692965046634823	0.003300667226562415	-0.10456505973573765	0.5549032294049875	0.02109449663862062	-0.09474705376773263	0.5179647519314421	0.027481602543245387	-0.07959863490306279	0.5692311918325068	-0.01848615912278473	-0.09542343799489139	0.5668375954898808	-0.005206701942709779	-0.08489126283725545	0.5587251909235258	0.010018867165075718	-0.07292535474401712	0.5251589058842502	0.014787881626422528	-0.06061907745437478	0.4622830810018609	-0.023011742144276925	-0.051989820119430985
31	1.0666666666666622	0.5371804925220522	-0.009134769942273357	-0.1417773804904447	0.518811016846982	-0.014494326840504779	-0.12905584311174645	0.49118836725836235	-0.023827522315689964	-0.11816085839737872	0.4776810749519874	-0.02720158854697574	-0.0757809252731152	0.5657146855651721	-0.0002619566985418986	-0.14348485739203137	0.5505833948598877	0.009016037313533398	-0.13988445898295665	0.5287474596253375	0.01935439498120972	-0.13293319102899842	0.48983746471407597	0.02445551374841104	-0.11639151707112727	0.5776032554909282	-0.003377419098383627	-0.1328389076284202	0.5644451755807846	0.007362051044855988	-0.12655172112564006	0.5423562921672727	0.023151789231642406	-0.11596045361239993	0.5026865562742039	0.0315111007069413	-0.0971832896403535	0.5767202354083945	-0.01107920868996426	-0.11247596200002252	0.5690725152390903	0.003433616375342119	-0.1049999814733068	0.5547031109753116	0.02122229060964098	-0.09513776726502193	0.517858903627035	0.027527458282315287	-0.0797277030374895	0.568732610175131	-0.018671762648288293	-0.09586561624649936	0.5665093486011862	-0.005331410281724125	-0.08537313766850235	0.5585261324747058	0.009944732466887762	-0.07338482077237651	0.5250894071983643	0.014864283502216358	-0.06078851689364856	0.462283081001861	-0.023011742144276925	-0.05198982011943093
32	1.0999999999999952	0.5359017303964577	-0.009770821099586158	-0.14295382194477557	0.5177485710089115	-0.014979760591231517	-0.12986452274188803	0.49022050508540604	-0.02409518648926523	-0.11855370503455132	0.4774109246154493	-0.027266712282407513	-0.07594213298742841	0.5652406955741279	0.0007922821957579984	-0.1452110000193852	0.5500508734464551	0.009814593792721649	-0.14122763496243146	0.5282100116212207	0.01982200250164856	-0.13382234235082502	0.48954152515486327	0.02438181952553775	-0.116571478108423	0.577379888739797	-0.0027638889777849007	-0.13425699691379683	0.5641920594136682	0.007790704746772348	-0.12772387293101217	0.5420806482681674	0.023289959022796514	-0.11675718865353918	0.5026088920547103	0.031353861398034755	-0.09744134383877512	0.5768979948965742	-0.010472673772562668	-0.11356592535324922	0.5691013713196612	0.003899358971532485	-0.10597268259388881	0.554570991152297	0.02145350549362912	-0.09592778483071396	0.5178335218269801	0.027346418810425877	-0.08010524539445019	0.5686971646931636	-0.018635821248688567	-0.09679230373214892	0.5664349740866866	-0.005331759117361279	-0.08626213637992958	0.5584034092629253	0.009868231849870068	-0.07420949102391705	0.5251036732564833	0.014734027863158916	-0.06123509076578054	0.4622830810018609	-0.023011742144276925	-0.051989820119430985
33	1.1333333333333284	0.533777537283529	-0.010656556460810651	-0.14491596823259761	0.5160148559303079	-0.015653638845352535	-0.13122230843011817	0.4886976710959201	-0.02440071270071864	-0.11913594786571857	0.47697312373599776	-0.027354109823994666	-0.07619759164849527	0.5646706090600375	0.002442358195425265	-0.1478332965453426	0.5493879683199823	0.011017322931628604	-0.14326045587642838	0.5275340989585069	0.02043136697774428	-0.1351491057034077	0.48922680290466347	0.024100649995580703	-0.11690839504898964	0.5774197516922949	-0.0014711434365267673	-0.13654681579228617	0.5640682306274741	0.008609005719712903	-0.12960941871242893	0.5418056466942194	0.023445978770684772	-0.11804866020359744	0.5026107368123288	0.03092384017757399	-0.09794919381441591	0.577655576568015	-0.009268913105031862	-0.11546862884475545	0.5694554362137529	0.004725599283112558	-0.10760025409589685	0.5545255970448297	0.021726885346914804	-0.09719659351094628	0.5179121122491822	0.02684867195575702	-0.08082769412667545	0.5693532647086537	-0.01830277155926463	-0.09824379661239113	0.5667735070593319	-0.0051486468892432136	-0.0875988985557491	0.5584326742210298	0.009792406289438782	-0.07543306703976571	0.5252383512194332	0.014295100614015399	-0.062063470363533824	0.462283081001861	-0.023011742144276925	-0.051989820119430985
34	1.1666666666666616	0.5307979328781544	-0.01190840954633876	-0.14754999452835327	0.5136375139888019	-0.016579106215599326	-0.1329999218080637	0.4866597636379819	-0.0248292165033992	-0.11984862277534564	0.4763689724126008	-0.027507715838300695	-0.07652639687144547	0.5638943243098433	0.004595974251949908	-0.15124870063228008	0.5485147447404961	0.01252956247627457	-0.14590766045671744	0.5266769393554077	0.021109787767276567	-0.13687993522171726	0.4888825984107169	0.02359806511019391	-0.11741118173256965	0.5776888816302511	0.0005678941567084372	-0.13960683135649887	0.5640573699801796	0.009853640344437364	-0.13212640303513618	0.541522057276435	0.023607286349056067	-0.11978110219132992	0.5026822075102673	0.030212003130708376	-0.09870999146181025	0.5789478990097108	-0.007371212779093805	-0.11807697178925414	0.5700919307534319	0.0059648619322952845	-0.10978716253113285	0.5545411118734891	0.022071963511087977	-0.09888242549195247	0.518070428025714	0.026041479058608763	-0.08188674957148268	0.5707319873402372	-0.017575580876024066	-0.10013380160608515	0.5675314380029138	-0.004712518927403875	-0.08930337588752174	0.5585946486598019	0.009743054769386972	-0.07697526961228673	0.5254644128805829	0.013569339101126121	-0.06324098854533428	0.462283081001861	-0.023011742144276925	-0.051989820119430985
35	1.1999999999999948	0.527007280760495	-0.013523397444049512	-0.15069616672922836	0.5106573854509825	-0.01778008907905204	-0.1351217807158896	0.4841790361464512	-0.02538432996420148	-0.12063411221237075	0.47559089371599383	-0.027699287976472364	-0.07692170231545925	0.562794324481477	0.007049028177809613	-0.1553185091688244	0.54737323520704	0.014197643671196247	-0.1490665253142746	0.5256279471016463	0.021751677688712445	-0.13896262268827697	0.48853006699913504	0.022851441368648584	-0.11807784579820746	0.5779934859857913	0.003173721368019189	-0.14328753069334588	0.5640513413211153	0.011411684027328173	-0.13517873464380314	0.5412128979929283	0.0237361444676355	-0.12191514797953729	0.5028207116818295	0.029195862685387763	-0.09972552364209902	0.5805414878610835	-0.004876686294993271	-0.12125516291553617	0.5708790738589633	0.00753885344577232	-0.11245220156170166	0.5545751776055542	0.02243758524044226	-0.10094608419446749	0.518300305946967	0.02490930350432574	-0.0832614827294354	0.5726755033932812	-0.016489154027321207	-0.10233503105362007	0.5686104129616679	-0.004063540821293121	-0.0912860864779158	0.5588635837638487	0.009713549139288347	-0.07879596510914655	0.5257580071440481	0.012546429742805953	-0.06476460611734813	0.462283081001861	-0.023011742144276925	-0.05198982011943093
36	1.233333333333328	0.5222492694028124	-0.015267705584601776	-0.15425030178431276	0.5069857413533024	-0.019078052172479154	-0.1375019893211996	0.4812144140165595	-0.025905733027991595	-0.12143832033065716	0.4746454832868504	-0.027918278495498217	-0.07736237666736734	0.5612298909031235	0.009699504020287075	-0.15992264481018603	0.5458565259698716	0.015944435590415806	-0.1526658906932638	0.5243289666788439	0.02231748030712577	-0.14135402413596643	0.488147120540686	0.02187056187456282	-0.11889716843555043	0.5781193832006795	0.0062022263270025135	-0.1474951950630094	0.5638965802527269	0.013161653756404768	-0.13870439042642468	0.5408003098619841	0.023751571736544963	-0.12442764425610986	0.5029900172531477	0.027879404439108302	-0.10098642647601502	0.5822470786494256	-0.0018149617951527253	-0.12488219514564236	0.5716871830015557	0.009398964915670383	-0.11551542133443127	0.5545677095254278	0.02277526095047433	-0.10334256993102359	0.5185633751071753	0.02344094897509208	-0.08495872929440668	0.575096922031987	-0.015029613245655327	-0.10473987921688521	0.5699408566014281	-0.003223778957040846	-0.09346879825605586	0.5591910264114462	0.009649035195859357	-0.08083773235996283	0.5260766137066105	0.011232191033378802	-0.06663165127445775	0.4622830810018609	-0.023011742144276925	-0.051989820119430985
37	1.2666666666666608	0.516604995065136	-0.01706879705680675	-0.15798448792781866	0.5026966654109097	-0.020418215475321078	-0.14000283721140533	0.47788420633828776	-0.02639658686653823	-0.12218652585697137	0.4735669845489924	-0.028119046474186837	-0.07782117080461037	0.5592245590787726	0.01248888022406458	-0.16475042892028657	0.5439993837017993	0.017726865921414703	-0.15645841224309853	0.52283324526343	0.02280297197843284	-0.1438791609177737	0.48776509272389457	0.02070869560689692	-0.11980687855935351	0.5780302207296337	0.009702279091229005	-0.15188774523630133	0.5635881869367959	0.015170608849963463	-0.1424259785103527	0.540308928989503	0.02373964375031523	-0.12712704585804135	0.5031880033915163	0.026318301689977397	-0.10239780553451028	0.5839330657153503	0.0018099925203199918	-0.12863905450704793	0.5724431064099912	0.011530706154619708	-0.11871491416134883	0.5544845803121218	0.023059301028538925	-0.10587891713637315	0.5188433538182103	0.02169655182254815	-0.08683773223071978	0.5778938677458	-0.013131842887815992	-0.10707456629844436	0.5714368604337213	-0.002168717131963649	-0.09562393617459836	0.5595247894312905	0.009564371069640587	-0.08292554160337706	0.5263859455786584	0.009677936161725409	-0.06868870269578503	0.462283081001861	-0.023011742144276925	-0.05198982011943093
